<svg width="218" height="52" viewBox="0 0 218 52" fill="none" xmlns="http://www.w3.org/2000/svg">
<path d="M81.56 16.664V39H77.08V24.472L71.096 39H67.704L61.688 24.472V39H57.208V16.664H62.296L69.4 33.272L76.504 16.664H81.56ZM102.469 29.752C102.469 30.392 102.427 30.968 102.341 31.48H89.3813C89.4879 32.76 89.9359 33.7627 90.7253 34.488C91.5146 35.2133 92.4853 35.576 93.6373 35.576C95.3013 35.576 96.4853 34.8613 97.1893 33.432H102.021C101.509 35.1387 100.528 36.5467 99.0773 37.656C97.6266 38.744 95.8453 39.288 93.7333 39.288C92.0266 39.288 90.4906 38.9147 89.1253 38.168C87.7813 37.4 86.7253 36.3227 85.9573 34.936C85.2106 33.5493 84.8372 31.9493 84.8372 30.136C84.8372 28.3013 85.2106 26.6907 85.9573 25.304C86.7039 23.9173 87.7493 22.8507 89.0933 22.104C90.4373 21.3573 91.9839 20.984 93.7333 20.984C95.4186 20.984 96.9226 21.3467 98.2453 22.072C99.5893 22.7973 100.624 23.832 101.349 25.176C102.096 26.4987 102.469 28.024 102.469 29.752ZM97.8293 28.472C97.8079 27.32 97.3919 26.4027 96.5813 25.72C95.7706 25.016 94.7786 24.664 93.6053 24.664C92.4959 24.664 91.5573 25.0053 90.7893 25.688C90.0426 26.3493 89.5839 27.2773 89.4133 28.472H97.8293ZM104.587 30.072C104.587 28.28 104.939 26.6907 105.643 25.304C106.369 23.9173 107.35 22.8507 108.587 22.104C109.825 21.3573 111.201 20.984 112.715 20.984C113.867 20.984 114.966 21.24 116.011 21.752C117.057 22.2427 117.889 22.904 118.507 23.736V15.32H123.051V39H118.507V36.376C117.953 37.2507 117.174 37.9547 116.171 38.488C115.169 39.0213 114.006 39.288 112.683 39.288C111.19 39.288 109.825 38.904 108.587 38.136C107.35 37.368 106.369 36.2907 105.643 34.904C104.939 33.496 104.587 31.8853 104.587 30.072ZM118.539 30.136C118.539 29.048 118.326 28.12 117.899 27.352C117.473 26.5627 116.897 25.9653 116.171 25.56C115.446 25.1333 114.667 24.92 113.835 24.92C113.003 24.92 112.235 25.1227 111.531 25.528C110.827 25.9333 110.251 26.5307 109.803 27.32C109.377 28.088 109.163 29.0053 109.163 30.072C109.163 31.1387 109.377 32.0773 109.803 32.888C110.251 33.6773 110.827 34.2853 111.531 34.712C112.257 35.1387 113.025 35.352 113.835 35.352C114.667 35.352 115.446 35.1493 116.171 34.744C116.897 34.3173 117.473 33.72 117.899 32.952C118.326 32.1627 118.539 31.224 118.539 30.136ZM129.699 19.16C128.909 19.16 128.248 18.9147 127.715 18.424C127.203 17.912 126.947 17.2827 126.947 16.536C126.947 15.7893 127.203 15.1707 127.715 14.68C128.248 14.168 128.909 13.912 129.699 13.912C130.488 13.912 131.139 14.168 131.651 14.68C132.184 15.1707 132.451 15.7893 132.451 16.536C132.451 17.2827 132.184 17.912 131.651 18.424C131.139 18.9147 130.488 19.16 129.699 19.16ZM131.907 21.272V39H127.427V21.272H131.907ZM143.725 34.872L148.205 21.272H152.973L146.413 39H140.973L134.445 21.272H139.245L143.725 34.872ZM163.361 39.288C161.655 39.288 160.119 38.9147 158.753 38.168C157.388 37.4 156.311 36.3227 155.521 34.936C154.753 33.5493 154.369 31.9493 154.369 30.136C154.369 28.3227 154.764 26.7227 155.553 25.336C156.364 23.9493 157.463 22.8827 158.849 22.136C160.236 21.368 161.783 20.984 163.489 20.984C165.196 20.984 166.743 21.368 168.129 22.136C169.516 22.8827 170.604 23.9493 171.393 25.336C172.204 26.7227 172.609 28.3227 172.609 30.136C172.609 31.9493 172.193 33.5493 171.361 34.936C170.551 36.3227 169.441 37.4 168.033 38.168C166.647 38.9147 165.089 39.288 163.361 39.288ZM163.361 35.384C164.172 35.384 164.929 35.192 165.633 34.808C166.359 34.4027 166.935 33.8053 167.361 33.016C167.788 32.2267 168.001 31.2667 168.001 30.136C168.001 28.4507 167.553 27.16 166.657 26.264C165.783 25.3467 164.705 24.888 163.425 24.888C162.145 24.888 161.068 25.3467 160.193 26.264C159.34 27.16 158.913 28.4507 158.913 30.136C158.913 31.8213 159.329 33.1227 160.161 34.04C161.015 34.936 162.081 35.384 163.361 35.384ZM180.376 24.024C180.952 23.0853 181.698 22.3493 182.616 21.816C183.554 21.2827 184.621 21.016 185.816 21.016V25.72H184.632C183.224 25.72 182.157 26.0507 181.432 26.712C180.728 27.3733 180.376 28.5253 180.376 30.168V39H175.896V21.272H180.376V24.024ZM187.681 30.072C187.681 28.28 188.033 26.6907 188.737 25.304C189.462 23.9173 190.433 22.8507 191.649 22.104C192.886 21.3573 194.262 20.984 195.777 20.984C197.1 20.984 198.252 21.2507 199.233 21.784C200.236 22.3173 201.036 22.9893 201.633 23.8V21.272H206.145V39H201.633V36.408C201.057 37.24 200.257 37.9333 199.233 38.488C198.23 39.0213 197.068 39.288 195.745 39.288C194.252 39.288 192.886 38.904 191.649 38.136C190.433 37.368 189.462 36.2907 188.737 34.904C188.033 33.496 187.681 31.8853 187.681 30.072ZM201.633 30.136C201.633 29.048 201.42 28.12 200.993 27.352C200.566 26.5627 199.99 25.9653 199.265 25.56C198.54 25.1333 197.761 24.92 196.929 24.92C196.097 24.92 195.329 25.1227 194.625 25.528C193.921 25.9333 193.345 26.5307 192.897 27.32C192.47 28.088 192.257 29.0053 192.257 30.072C192.257 31.1387 192.47 32.0773 192.897 32.888C193.345 33.6773 193.921 34.2853 194.625 34.712C195.35 35.1387 196.118 35.352 196.929 35.352C197.761 35.352 198.54 35.1493 199.265 34.744C199.99 34.3173 200.566 33.72 200.993 32.952C201.42 32.1627 201.633 31.224 201.633 30.136Z" fill="#000B6D"/>
<path d="M0.470734 24.15H11.1515C13.5885 24.15 16.1133 24.2903 18.1876 25.4978C19.809 26.4417 21.1739 27.7311 22.1731 29.2629C23.4512 31.2225 23.5998 33.6076 23.5998 35.9099V46H7.77464C5.83753 46 3.97974 45.273 2.60999 43.979C1.24025 42.685 0.470734 40.93 0.470734 39.1V24.15ZM49.1634 2.3C49.1634 2.91 48.9069 3.49501 48.4503 3.92635C47.9937 4.35768 47.3745 4.6 46.7288 4.6C46.0831 4.6 45.4638 4.35768 45.0073 3.92635C44.5506 3.49501 44.2942 2.91 44.2942 2.3C44.2942 1.69 44.5506 1.10499 45.0073 0.673654C45.4638 0.242321 46.0831 0 46.7288 0C47.3745 0 47.9937 0.242321 48.4503 0.673654C48.9069 1.10499 49.1634 1.69 49.1634 2.3Z" fill="#5F6FFF"/>
<path d="M25.3171 0C38.7636 0 49.6634 10.2971 49.6634 23V39.1C49.6634 40.93 48.894 42.685 47.5242 43.979C46.1545 45.273 44.2966 46 42.3595 46H26.5344V35.9099C26.5344 33.6076 26.6829 31.2225 27.9611 29.2629C28.8762 27.8586 30.1004 26.6566 31.5505 25.7385C33.0006 24.8204 34.6427 24.2077 36.3654 23.9419L36.8317 23.8706C37.024 23.8085 37.1908 23.6912 37.3089 23.5351C37.4271 23.379 37.4906 23.1919 37.4906 23C37.4906 22.8081 37.4271 22.621 37.3089 22.4649C37.1908 22.3088 37.024 22.1915 36.8317 22.1294L36.3654 22.0581C33.8482 21.6697 31.5238 20.5441 29.7203 18.8403C27.9167 17.1365 26.7254 14.9406 26.3141 12.5626L26.2386 12.1222C26.1729 11.9406 26.0487 11.7829 25.8835 11.6713C25.7183 11.5597 25.5202 11.4997 25.3171 11.4997C25.1139 11.4997 24.916 11.5597 24.7508 11.6713C24.5855 11.7829 24.4614 11.9406 24.3956 12.1222L24.3201 12.5626C24.0389 14.1902 23.3903 15.7415 22.4185 17.1114C21.4466 18.4814 20.1742 19.6378 18.6876 20.5022C16.6133 21.7097 14.0885 21.85 11.6515 21.85H1C1.63666 9.68185 12.2796 0 25.3171 0Z" fill="#5F6FFF"/>
</svg>
